<svg width="48" height="43" viewBox="0 0 48 43" fill="none" xmlns="http://www.w3.org/2000/svg">
<path fill-rule="evenodd" clip-rule="evenodd" d="M41.4306 13.8636L47.4588 16.9606C47.7889 17.1308 47.9979 17.468 48 17.8384C48.0019 18.2088 47.7988 18.549 47.4706 18.724L32.4707 26.6872C32.3242 26.765 32.1621 26.8038 32 26.8038C31.8418 26.8038 31.6856 26.7669 31.541 26.693L24 22.819L16.4591 26.693C16.3145 26.7669 16.1583 26.8038 16.0001 26.8038C15.838 26.8038 15.6759 26.765 15.5293 26.6872L0.529418 18.724C0.201294 18.549 -0.00186081 18.2088 0.00010793 17.8384C0.00207667 17.4681 0.211044 17.1308 0.541136 16.9606L6.56923 13.8637L0.541043 10.7666C0.210951 10.5965 0.00198292 10.2592 1.41806e-05 9.88883C-0.00195456 9.51851 0.201201 9.17827 0.529324 9.00331L15.5292 1.0401C15.8164 0.886477 16.166 0.884521 16.459 1.03424L24 4.90828L31.5409 1.03414C31.8339 0.884521 32.1796 0.886384 32.4706 1.04001L47.4706 9.00322C47.7987 9.17818 48.0018 9.51841 47.9999 9.88874C47.9979 10.2591 47.7889 10.5964 47.4588 10.7665L41.4306 13.8636ZM10.9308 13.8637L24 20.5781L37.0691 13.8636L24 7.14916L10.9308 13.8637Z" fill="#C6CDD7"/>
<path d="M22.5195 26.3557C22.2246 26.1759 21.8515 26.1632 21.5409 26.3217L17.3749 28.4622C16.5175 28.9035 15.4433 28.8958 14.5878 28.4427L9.47068 25.7258C9.16206 25.5625 8.78903 25.5703 8.48631 25.7511C8.1836 25.9309 7.99994 26.2546 7.99994 26.6045V35.0262C7.99994 35.3936 8.2031 35.7319 8.52925 35.9049L21.5292 42.8066C21.6757 42.8844 21.8378 42.9232 21.9999 42.9232C22.1777 42.9232 22.3554 42.8756 22.5136 42.7814C22.8163 42.6015 23 42.2778 23 41.9279V27.2063C23 26.8592 22.8184 26.5365 22.5195 26.3557Z" fill="#C6CDD7"/>
<path d="M38.5292 25.7258C38.8358 25.5625 39.2108 25.5702 39.5136 25.7511C39.8164 25.931 39.9999 26.2546 39.9999 26.6046V35.0263C39.9999 35.3937 39.7968 35.732 39.4706 35.905L26.4708 42.8067C26.3242 42.8845 26.1621 42.9233 26 42.9233C25.8223 42.9233 25.6446 42.8757 25.4864 42.7814C25.1836 42.6016 25 42.2779 25 41.928V27.2063C25 26.8592 25.1816 26.5365 25.4805 26.3557C25.7754 26.1759 26.1484 26.1623 26.459 26.3217L30.625 28.4622C31.4804 28.9045 32.5566 28.8967 33.4121 28.4428L38.5292 25.7258Z" fill="#C6CDD7"/>
</svg>
