<svg width="16" height="20" viewBox="0 0 16 20" fill="none" xmlns="http://www.w3.org/2000/svg">
<path fill-rule="evenodd" clip-rule="evenodd" d="M11.6918 19.09C12.9264 19.09 13.72 18.3336 13.7761 17.081L14.3213 5.36034H15.2031C15.604 5.36034 15.9166 5.04312 15.9166 4.63644C15.9166 4.23789 15.604 3.92067 15.2031 3.92067H11.6437V2.81449C11.6437 1.5619 10.7939 0.756668 9.42298 0.756668H6.56095C5.19808 0.756668 4.34829 1.5619 4.34829 2.81449V3.92067H0.796815C0.403988 3.92067 0.083313 4.23789 0.083313 4.63644C0.083313 5.04312 0.403988 5.36034 0.796815 5.36034H1.68669L2.22382 17.081C2.28795 18.3417 3.07361 19.09 4.32424 19.09H11.6918ZM10.1445 3.92067H5.85547V2.88769C5.86349 2.44034 6.18416 2.12313 6.65716 2.12313H9.33479C9.80779 2.12313 10.1365 2.44034 10.1365 2.88769L10.1445 3.92067ZM11.5154 17.6341H4.48461C4.04368 17.6341 3.72301 17.3006 3.69896 16.8207L3.16182 5.36034H12.8222L12.3091 16.8207C12.285 17.3087 11.9724 17.6341 11.5154 17.6341ZM10.369 16.3001C10.6656 16.3001 10.8821 16.048 10.8981 15.7064L11.1386 7.36936C11.1466 7.02774 10.9142 6.76746 10.6175 6.76746C10.3289 6.76746 10.0884 7.03588 10.0804 7.36122L9.83989 15.6901C9.83187 16.0317 10.0563 16.3001 10.369 16.3001ZM5.63901 16.3001C5.94365 16.3001 6.17614 16.0317 6.16812 15.6901L5.92762 7.36122C5.91158 7.03588 5.67108 6.76746 5.39049 6.76746C5.08585 6.76746 4.86137 7.02774 4.86939 7.36936L5.1099 15.7064C5.11791 16.048 5.34239 16.3001 5.63901 16.3001ZM8.00401 16.3001C8.29262 16.3001 8.54114 16.0317 8.54114 15.7064V7.36122C8.54114 7.03588 8.30063 6.76746 8.00401 6.76746C7.70738 6.76746 7.46688 7.03588 7.46688 7.36122V15.7064C7.46688 16.0317 7.70738 16.3001 8.00401 16.3001Z" fill="#C6CDD7"/>
</svg>
