<svg width="185" height="44" viewBox="0 0 185 44" fill="none" xmlns="http://www.w3.org/2000/svg">
<g clip-path="url(#clip0_2202_249)">
<path d="M21.9256 36.1132C19.1271 36.1132 16.3915 35.2833 14.0646 33.7286C11.7377 32.1738 9.92417 29.9639 8.85324 27.3785C7.7823 24.793 7.50209 21.948 8.04805 19.2033C8.59401 16.4586 9.94161 13.9374 11.9204 11.9586C13.8993 9.97973 16.4205 8.63213 19.1652 8.08617C21.9099 7.54021 24.7549 7.82042 27.3404 8.89135C29.9258 9.96229 32.1357 11.7759 33.6904 14.1027C35.2452 16.4296 36.075 19.1652 36.075 21.9637C36.0715 25.7153 34.5796 29.3122 31.9268 31.9649C29.2741 34.6177 25.6772 36.1096 21.9256 36.1132ZM21.9256 10.7191C19.7005 10.7191 17.5254 11.3789 15.6754 12.6152C13.8254 13.8515 12.3836 15.6086 11.5323 17.6644C10.681 19.7202 10.4585 21.9823 10.8929 24.1645C11.3273 26.3468 12.3992 28.3512 13.9728 29.9242C15.5465 31.4973 17.5513 32.5683 19.7338 33.0018C21.9162 33.4354 24.1782 33.212 26.2336 32.3598C28.2891 31.5077 30.0456 30.0652 31.2812 28.2147C32.5167 26.3642 33.1757 24.1888 33.1748 21.9637C33.1665 18.9832 31.9785 16.1273 29.8705 14.0202C27.7626 11.913 24.9061 10.7262 21.9256 10.7191Z" fill="#06A538"/>
<path d="M21.9256 26.3615C21.0558 26.3615 20.2056 26.1035 19.4824 25.6203C18.7592 25.1371 18.1955 24.4502 17.8626 23.6467C17.5298 22.8431 17.4427 21.9588 17.6124 21.1058C17.7821 20.2527 18.2009 19.4691 18.8159 18.8541C19.431 18.239 20.2146 17.8202 21.0677 17.6505C21.9207 17.4808 22.805 17.5679 23.6086 17.9007C24.4121 18.2336 25.099 18.7973 25.5822 19.5205C26.0654 20.2437 26.3234 21.0939 26.3234 21.9637C26.3222 23.1297 25.8584 24.2476 25.034 25.0721C24.2095 25.8966 23.0916 26.3603 21.9256 26.3615ZM21.9256 20.4707C21.6292 20.4708 21.3395 20.5587 21.0932 20.7234C20.8468 20.8882 20.6549 21.1223 20.5417 21.3962C20.4285 21.6701 20.3991 21.9714 20.4572 22.262C20.5154 22.5527 20.6585 22.8195 20.8683 23.0287C21.0782 23.238 21.3455 23.3802 21.6362 23.4375C21.927 23.4948 22.2283 23.4645 22.5018 23.3504C22.7754 23.2364 23.0089 23.0438 23.1729 22.7969C23.3369 22.5501 23.424 22.2601 23.4231 21.9637C23.4231 21.7673 23.3843 21.5728 23.309 21.3913C23.2337 21.2099 23.1233 21.0451 22.9842 20.9064C22.8451 20.7677 22.68 20.6579 22.4983 20.5831C22.3167 20.5083 22.1221 20.4702 21.9256 20.4707Z" fill="#06A538"/>
<path d="M39.6023 16.5196C38.7325 16.5196 37.8822 16.2616 37.159 15.7784C36.4358 15.2952 35.8721 14.6083 35.5393 13.8048C35.2064 13.0012 35.1193 12.1169 35.289 11.2639C35.4587 10.4108 35.8776 9.62718 36.4926 9.01215C37.1076 8.39711 37.8912 7.97827 38.7443 7.80858C39.5974 7.63889 40.4816 7.72599 41.2852 8.05884C42.0888 8.39169 42.7756 8.95536 43.2589 9.67856C43.7421 10.4018 44 11.252 44 12.1218C44 13.2882 43.5367 14.4068 42.7119 15.2315C41.8872 16.0562 40.7686 16.5196 39.6023 16.5196ZM39.6023 10.6288C39.3059 10.6288 39.0162 10.7168 38.7698 10.8815C38.5235 11.0463 38.3316 11.2804 38.2183 11.5543C38.1051 11.8282 38.0757 12.1295 38.1339 12.4201C38.192 12.7107 38.3351 12.9776 38.545 13.1868C38.7549 13.3961 39.0221 13.5383 39.3129 13.5956C39.6037 13.6529 39.9049 13.6226 40.1785 13.5085C40.452 13.3945 40.6856 13.2019 40.8496 12.955C41.0136 12.7081 41.1006 12.4182 41.0998 12.1218C41.0998 11.9254 41.061 11.7309 40.9857 11.5494C40.9104 11.368 40.8 11.2032 40.6609 11.0645C40.5218 10.9258 40.3566 10.816 40.175 10.7412C39.9933 10.6664 39.7987 10.6282 39.6023 10.6288Z" fill="#06A538"/>
<path d="M42.3176 13.7321C41.7848 14.1883 41.1066 14.4394 40.4051 14.4402C40.06 14.4394 39.7178 14.3767 39.3948 14.2553C41.3904 18.7503 41.5817 23.8404 39.929 28.4725C38.2763 33.1045 34.9062 36.924 30.5159 39.1405C26.1256 41.357 21.0513 41.8009 16.3428 40.3804C11.6343 38.9599 7.65219 35.7836 5.22031 31.5089C2.78843 27.2341 2.09297 22.1881 3.27784 17.4149C4.4627 12.6417 7.4372 8.50661 11.5858 5.86537C15.7345 3.22413 20.7397 2.27884 25.5659 3.22511C30.3921 4.17138 34.6698 6.93678 37.5139 10.9491C37.6074 10.4333 37.8375 9.95204 38.1802 9.55539C38.5229 9.15874 38.9657 8.86123 39.4624 8.69384C36.095 4.25208 31.1646 1.25694 25.6708 0.315553C20.1769 -0.625829 14.5306 0.556992 9.87653 3.62424C5.22242 6.69149 1.90873 11.4137 0.607176 16.8335C-0.694375 22.2533 0.113606 27.9653 2.86733 32.8115C5.62106 37.6577 10.1145 41.2756 15.4367 42.9316C20.7589 44.5877 26.5118 44.158 31.529 41.7298C36.5462 39.3016 40.4524 35.0565 42.4558 29.855C44.4591 24.6536 44.4097 18.8849 42.3176 13.7185V13.7321Z" fill="#06A538"/>
<path d="M60.9063 11.2523V28.9618H67.9863V33.9617H55V11.2523H60.9063Z" fill="#1D1D1B"/>
<path d="M68.9864 21.9569C68.9806 20.3371 69.3052 18.7332 69.9406 17.2433C70.5514 15.7987 71.4465 14.4917 72.5726 13.4C73.6987 12.3083 75.0329 11.4542 76.4957 10.8885C79.7605 9.65273 83.3643 9.65273 86.6291 10.8885C88.1197 11.4597 89.4796 12.3263 90.627 13.4361C91.7457 14.5181 92.632 15.8168 93.2319 17.2528C94.4788 20.2715 94.4788 23.6613 93.2319 26.6801C92.6283 28.1141 91.7425 29.412 90.627 30.4968C89.4765 31.6003 88.1173 32.4632 86.6291 33.0349C83.3643 34.2706 79.7605 34.2706 76.4957 33.0349C74.2702 32.1699 72.3612 30.6472 71.023 28.6698C69.6848 26.6923 68.981 24.354 69.0055 21.9664L68.9864 21.9569ZM75.1694 21.9569C75.1619 22.8164 75.3341 23.6679 75.6751 24.4568C76.3388 25.9647 77.5694 27.1506 79.1006 27.7583C80.2642 28.2253 81.537 28.3504 82.7692 28.1189C84.0014 27.8873 85.1419 27.3087 86.0566 26.4511C86.6497 25.8842 87.1262 25.2067 87.4592 24.4568C87.7989 23.6672 87.9741 22.8165 87.9741 21.9569C87.9741 21.0973 87.7989 20.2466 87.4592 19.457C87.126 18.71 86.6495 18.0357 86.0566 17.4723C85.4616 16.9082 84.7656 16.4615 84.0051 16.1555C82.4294 15.5336 80.6763 15.5336 79.1006 16.1555C77.5744 16.771 76.3464 17.9545 75.6751 19.457C75.3341 20.2459 75.1619 21.0974 75.1694 21.9569Z" fill="#1D1D1B"/>
<path d="M111.254 30.0209H102.82L101.465 33.9617H95.1671L103.812 11.2523H110.262L118.907 33.9617H112.609L111.254 30.0209ZM109.69 25.5268L107.047 17.9697L104.394 25.5268H109.69Z" fill="#1D1D1B"/>
<path d="M119.926 11.2332H128.657C130.163 11.2263 131.652 11.5522 133.017 12.1874C134.343 12.7887 135.546 13.6297 136.567 14.6682C137.584 15.7132 138.397 16.9399 138.962 18.2845C139.531 19.6445 139.824 21.1041 139.824 22.5783C139.824 24.0525 139.531 25.5121 138.962 26.8721C138.407 28.2229 137.597 29.4539 136.576 30.4979C135.56 31.548 134.356 32.3991 133.027 33.0074C131.651 33.6414 130.153 33.967 128.638 33.9616H119.907L119.926 11.2332ZM125.832 28.9426H127.187C128.122 28.9568 129.051 28.7949 129.926 28.4656C130.688 28.1687 131.38 27.7171 131.958 27.1393C132.516 26.5672 132.949 25.8847 133.227 25.1355C133.524 24.3193 133.673 23.4564 133.666 22.5878C133.674 21.7237 133.518 20.8659 133.208 20.0593C132.929 19.3025 132.493 18.6131 131.93 18.0364C131.351 17.4586 130.659 17.007 129.897 16.7101C129.032 16.3825 128.113 16.2207 127.187 16.233H125.832V28.9426Z" fill="#1D1D1B"/>
<path d="M156.911 30.0209H148.476L147.121 33.9617H140.824L149.469 11.2523H155.919L164.564 33.9617H158.304L156.911 30.0209ZM155.346 25.5268L152.694 17.9697L150.041 25.5268H155.346Z" fill="#1D1D1B"/>
<path d="M184.456 33.9617H177.109L171.47 25.231V33.9617H165.564V11.2523H174.752C175.884 11.2272 177.01 11.4149 178.073 11.8057C178.927 12.1257 179.701 12.6264 180.344 13.2736C180.986 13.9209 181.481 14.6993 181.794 15.5557C182.107 16.4248 182.265 17.3419 182.262 18.2655C182.331 19.7689 181.891 21.2517 181.012 22.4734C180.073 23.6103 178.767 24.3833 177.319 24.6585L184.456 33.9617ZM171.47 21.4047H172.586C173.536 21.4682 174.479 21.213 175.268 20.6796C175.562 20.419 175.798 20.0988 175.96 19.7402C176.121 19.3816 176.205 18.9928 176.205 18.5995C176.205 18.2061 176.121 17.8173 175.96 17.4587C175.798 17.1001 175.562 16.7799 175.268 16.5194C174.478 15.9899 173.535 15.7351 172.586 15.7942H171.47V21.4047Z" fill="#1D1D1B"/>
</g>
<defs>
<clipPath id="clip0_2202_249">
<rect width="184.456" height="43.9233" fill="white"/>
</clipPath>
</defs>
</svg>
